<?xml version="1.0" ?><svg viewBox="0 0 24 24" xmlns="http://www.w3.org/2000/svg"><title/><g id="Onedrive"><g data-name="&lt;Group&gt;" id="_Group_"><path d="M21,19.5a2.49,2.49,0,0,0,.18-5,2.72,2.72,0,0,0,.32-1.27,2.74,2.74,0,0,0-5-1.6A4,4,0,0,0,9,13.5s0,0,0,.05A3,3,0,1,0,8.5,19.5Z" data-name="&lt;Path&gt;" id="_Path_" style="fill:none;stroke:#303c42;stroke-linecap:round;stroke-linejoin:round"/><path d="M18.3,10.56a4.7,4.7,0,0,0,.2-1.31,4.74,4.74,0,0,0-9-2A3.73,3.73,0,0,0,4,12l-.21,0a3.25,3.25,0,0,0,0,6.5H6.26" data-name="&lt;Path&gt;" id="_Path_2" style="fill:none;stroke:#303c42;stroke-linecap:round;stroke-linejoin:round"/></g></g></svg>