<?xml version="1.0" ?><svg enable-background="new 0 0 231.999 210.737" id="swift" version="1.1" viewBox="0 0 231.999 210.737" xml:space="preserve" xmlns="http://www.w3.org/2000/svg" xmlns:xlink="http://www.w3.org/1999/xlink"><path d="M215.1396,148.7995c15.4219-47.8613-12.0469-109.7012-66.1367-148.0625  c-1.5664-1.1094-3.707-0.9551-5.0898,0.3867c-1.3867,1.3359-1.6211,3.4668-0.5664,5.0742  c23.3789,35.5508,29.3867,71.5684,16.8203,99.6406C122.7099,80.5397,54.9638,21.4831,54.2568,20.8679  c-1.5-1.3164-3.75-1.3164-5.2578,0c-1.5078,1.3145-1.8125,3.5391-0.7148,5.2109c1.0547,1.6016,19.9844,30.3184,40.3672,55.2871  C73.956,70.8698,57.7373,57.5827,28.8896,33.4636c-1.5-1.2578-3.6914-1.2383-5.1758,0.0371  c-1.4844,1.2773-1.8242,3.4414-0.8047,5.1133c28.5781,46.9063,76.1445,90.4043,99.5898,110.3457  C68.4599,173.1706,6.8349,133.3308,6.1982,132.9128c-1.5938-1.043-3.6875-0.8281-5.0273,0.5117s-1.5547,3.4414-0.5156,5.0273  c11.7852,17.9219,27.9844,31.2422,48.6797,45.7305c27.5469,19.2891,54.9609,26.5547,78.3047,26.5547  c24.1289,0,43.9062-7.7656,54.9726-18.0508c0.0469-0.0586,5.0039-5.1758,15.9844-1.9609  c8.7539,2.5586,20.8125,12.1953,25.0312,16.5469c1.0156,1.0469,2.5352,1.4609,3.9414,1.0703  c1.4102-0.3945,2.4961-1.5273,2.8281-2.9531c1.0625-4.5898,1.6016-9.3242,1.6016-14.0664  C231.999,175.3503,226.0302,160.3464,215.1396,148.7995z" fill="#535353"/><path d="M223.7412,196.6159c-6.0938-5.0312-15.1016-11.2891-22.9023-13.5703  c-15.957-4.6523-23.8633,3.9414-23.9336,4.0469c-19.5391,18.1367-70.6172,27.2031-122.9844-9.4648  c-13.6055-9.5234-25.168-18.4883-34.6641-28.5781c6.7461,3.1602,15.1562,6.6016,24.7031,9.4766  c32.6875,9.8359,63.0039,8.0586,87.6914-5.1523c1.1719-0.6289,1.957-1.7969,2.0938-3.1211  c0.1328-1.3242-0.3984-2.6289-1.4219-3.4805c-17.4883-14.5625-56.7266-49.084-86.6406-88.9355  c29.1289,24.0234,42.6758,33.9746,64.1641,46.8691c1.7422,1.0449,3.9883,0.6191,5.2305-0.9902  c1.2383-1.6113,1.0703-3.8926-0.3828-5.3086c-13.7578-13.3652-30.0117-34.5742-42.0859-51.3106  c24.75,20.8984,63.2734,52.584,86.9805,67.9531c0.9414,0.6133,2.1094,0.793,3.1875,0.5156  c1.0859-0.2852,2.0039-1.0156,2.5273-2.0078c13.9023-26.4199,12.0742-59.6133-4.6172-93.2676  c41.1055,36.8945,60.3086,88.3027,46.1055,128.2168c-0.5234,1.4688-0.1445,3.1055,0.9727,4.1992  c10.4688,10.25,16.2344,23.9648,16.2344,38.6172C223.999,193.0925,223.9131,194.8581,223.7412,196.6159z" fill="#D8D8D8"/></svg>