<?xml version="1.0" ?><svg enable-background="new 0 0 222.2031 167.4219" id="appnet" version="1.1" viewBox="0 0 222.2031 167.4219" xml:space="preserve" xmlns="http://www.w3.org/2000/svg" xmlns:xlink="http://www.w3.org/1999/xlink"><path d="M221.0312,53.4648L168.7227,1.1523c-1.5-1.5-4.1562-1.5-5.6562,0L111.0938,53.125L59.1406,1.1719  c-1.5625-1.5625-4.0938-1.5625-5.6562,0L1.1719,53.4805C0.4219,54.2305,0,55.2461,0,56.3086s0.4219,2.0781,1.1719,2.8281  L108.2852,166.25c0.75,0.75,1.7656,1.1719,2.8281,1.1719s2.0781-0.4219,2.8281-1.1719l52.3086-52.3125  c0.1055-0.1055,0.2031-0.2148,0.293-0.3281l54.4883-54.4883C222.5938,57.5586,222.5938,55.0273,221.0312,53.4648z" fill="#535353"/><path d="M160.5742,108.2656c-0.1055,0.1055-0.2031,0.2148-0.293,0.3281l-49.168,49.1719L9.6562,56.3086  L56.3125,9.6562l51.9531,51.9531c1.5625,1.5625,4.0938,1.5625,5.6562,0l51.9727-51.9727l46.6523,46.6562L160.5742,108.2656z" fill="#D8D8D8"/></svg>