<?xml version="1.0" ?><svg enable-background="new 0 0 218.2969 112" id="soundcloud" version="1.1" viewBox="0 0 218.2969 112" xml:space="preserve" xmlns="http://www.w3.org/2000/svg" xmlns:xlink="http://www.w3.org/1999/xlink"><g><path d="M187.7422,47.3613c-0.5078-0.0508-0.9688-0.0996-1.3828-0.1465C183.2969,20.4844,160.6562,0,133.4297,0   c-9.6367,0-24.5664,4.6074-31.4766,8.7285l-2.0234,1.2051l3.0625,101.8398L192,112c16.4609,0,26.2969-16.7695,26.2969-32.9824   C218.2969,62.168,205.7344,49.1504,187.7422,47.3613z" fill="#314E55"/><path d="M192.0156,104l-55.8281-0.2266h-25.4297l-2.6836-89.2598C114.5547,11.3418,126.1602,8,133.4297,8   c24.0859,0,43.9492,18.8672,45.2148,42.9531l0.1797,3.123l3.0703,0.5957c0,0,1.5781,0.3066,5.0586,0.6504   c13.7422,1.3672,23.3438,11.1113,23.3438,23.6953C210.2969,91.0332,203.3008,104,192.0156,104z" fill="#D8D8D8"/><rect fill="#314E55" height="88" width="8" x="80" y="24"/><rect fill="#314E55" height="80" width="8" x="60" y="32"/><rect fill="#314E55" height="76" width="8" x="40" y="36"/><rect fill="#314E55" height="60" width="8" x="20" y="52"/><rect fill="#314E55" height="36" width="8" y="64"/></g></svg>