<?xml version="1.0" ?><svg enable-background="new 0 0 232 120" id="steam" version="1.1" viewBox="0 0 232 120" xml:space="preserve" xmlns="http://www.w3.org/2000/svg" xmlns:xlink="http://www.w3.org/1999/xlink"><g><path d="M223.6729,53.4551C228.8281,47.7722,232,40.2588,232,32c0-17.6445-14.3555-32-32-32   c-14.6426,0-26.9905,9.8982-30.7783,23.3462l-16.7896,44.772c-3.8438,0.23-7.5325,1.2839-10.8833,3.1235L59.6685,37.6841   C57.5481,22.998,44.9243,12,30,12C13.457,12,0,25.457,0,42s13.457,30,30,30c5.9761,0,11.6465-1.8081,16.5752-5.0942   l82.3672,33.7585c0.0234,0.1353-0.0076,0.2671,0.0303,0.4021C132.1172,112.2148,142.4062,120,154,120c14.3359,0,26-11.6641,26-26   c0-0.7019-0.0505-1.3914-0.1055-2.0793l42.7188-36.8933C223.1206,54.5889,223.4431,54.0383,223.6729,53.4551z" fill="#314E55"/><path d="M200,8c13.2344,0,24,10.7656,24,24s-10.7656,24-24,24s-24-10.7656-24-24   c0-2.1252,0.3047-4.1758,0.8257-6.1394l0.9204-2.4543c0.0767-0.2048,0.0576-0.4136,0.0994-0.6213   C181.4658,14.1123,190.0298,8,200,8z" fill="#FFFFFF"/><path d="M200,48c8.8242,0,16-7.1758,16-16s-7.1758-16-16-16s-16,7.1758-16,16S191.1758,48,200,48z" fill="#314E55"/><path d="M200,24c4.4102,0,8,3.5898,8,8s-3.5898,8-8,8s-8-3.5898-8-8S195.5898,24,200,24z" fill="#D8D8D8"/><path d="M24.9648,49.4023c-4.0781-1.6719-6.0391-6.3555-4.3711-10.4336c1.6797-4.0781,6.3633-6.043,10.4414-4.3711   l107.6721,44.126c0.7617,0.7454,1.7317,1.1316,2.7585,1.1304l11.5654,4.7397c1.9805,0.8125,3.5234,2.3438,4.3477,4.3164   s0.832,4.1445,0.0195,6.125c-1.668,4.082-6.3359,6.0469-10.4336,4.3672L24.9648,49.4023z" fill="#D8D8D8"/><path d="M30,64C17.8711,64,8,54.1289,8,42s9.8711-22,22-22c9.1738,0,17.094,5.7007,20.3574,13.8679l-16.291-6.6765   c-8.1602-3.3398-17.5234,0.582-20.875,8.7422c-3.3398,8.1602,0.5781,17.5234,8.7383,20.8711l14.9016,6.1074   C34.6487,63.6238,32.3545,64,30,64z" fill="#FFFFFF"/><path d="M154,112c-5.5754,0-10.6729-2.6387-14.0205-6.812l3.9541,1.6206c1.957,0.8008,4.0117,1.1992,6.0664,1.1992   c2.0938,0,4.1875-0.4141,6.1797-1.25c3.9414-1.6484,7.0039-4.7344,8.6211-8.6875c3.3477-8.1641-0.5703-17.5273-8.7344-20.8789   l-2.7766-1.1379C153.5281,76.0442,153.7605,76,154,76c9.9258,0,18,8.0742,18,18S163.9258,112,154,112z" fill="#FFFFFF"/><path d="M160.6846,68.9033l9.5071-25.3518c4.6448,11.9417,16.2327,20.4424,29.7957,20.4478l-22.3269,19.2825   C174.468,76.2644,168.2554,70.9231,160.6846,68.9033z" fill="#FFFFFF"/></g></svg>